# xmcd
# 
# Track frame offsets:
#	222
#	15437
#	30252
#	45080
#	60020
#	74912
#	90227
#	102827
#	115672
#	127387
#	142837
#	157217
#	172475
#	186637
#	201265
#	216427
#
# Disc length: 3081 seconds
#
# Revision: 1
# Processed by: cddbd v1.4PL0 Copyright (c) Steve Scherf et al.
# Submitted via: Audio-CD-Archiv 2.10.446
#
DISCID=e40c0710
DTITLE=Jimmie Rodgers - Down The Old Road  1931 - 1932
DYEAR=1900
DGENRE=country
TTITLE0=Looking for a New Mama
TTITLE1=Looking for a New Mama
TTITLE2=When the Cactus Is in Bloom
TTITLE3=Jimmie Rodgers Visits the Carter Family
TTITLE4=The Carter Famiy and Jimmie Rodgers in Texas
TTITLE5=Gambling Polka Dot Blues
TTITLE6=My Good Gal's Gone Blues
TTITLE7=My Good Gal's Gone Blues
TTITLE8=Southern Cannon-Ball
TTITLE9=Roll Along, Kentucky Moon
TTITLE10=What's it?
TTITLE11=My Time Ain't Long
TTITLE12=Hobo's Meditation
TTITLE13=Ninety-Nine Years Blues
TTITLE14=Mississippi Moon
TTITLE15=Down the Old Road to Home
EXTD=
EXTT0=
EXTT1=
EXTT2=
EXTT3=
EXTT4=
EXTT5=
EXTT6=
EXTT7=
EXTT8=
EXTT9=
EXTT10=
EXTT11=
EXTT12=
EXTT13=
EXTT14=
EXTT15=
PLAYORDER=
